{"title":"The Last House on the Left[Unrated][2009]DvDRip[Eng]-Uvall","uid":5110871,"size":1270956958,"categoryP":"video","categoryS":"movies","magnet":"?xt=urn:btih:d9dd640ad656608f091da849ee5c4fca317e3f65&amp;dn=The+Last+House+on+the+Left%5BUnrated%5D%5B2009%5DDvDRip%5BEng%5D-Uvall&amp;tr=udp%3A%2F%2Ftracker.openbittorrent.com%3A80&amp;tr=udp%3A%2F%2Fopen.demonii.com%3A1337&amp;tr=udp%3A%2F%2Ftracker.coppersurfer.tk%3A6969&amp;tr=udp%3A%2F%2Fexodus.desync.com%3A6969","seeders":3,"leechers":0,"uploader":"Uvall","files":6,"time":1254725658,"description":"~~~~~~~~~~~~~~~~~~~~~~~~~~~~~~~~~~~~~~~~~~~~~~~~~~~~~~~~~~~~~~~~~~~\nTitle: The Last House on the Left[2009]\n~~~~~~~~~~~~~~~~~~~~~~~~~~~~~~~~~~~~~~~~~~~~~~~~~~~~~~~~~~~~~~~~~~~\n~~~~~~~~~~~~~~~~~~~~~~~~~~~~~~~~~~~~~~~~~~~~~~~~~~~~~~~~~~~~~~~~~~~\nRelease Notes\n\nGenre: Crime | Drama | Horror | Thriller\n\nRated: R for sadistic brutal violence including a rape and \n      disturbing images, language, nudity and some drug use.\n\nMovie Information: http://www.imdb.com/title/tt0844708/\n\nPlot:  After kidnapping and brutally assaulting two young women, a \n      gang led by a prison escapee unknowingly finds refuge at a \n      vacation home belonging the parents of one of the victims -- \n      a mother and father who devise an increasingly gruesome \n      series of revenge tactics.\n\nFormat                           : AVI\nFormat/Info                      : Audio Video Interleave\nFile size                        : 1.17 GiB\nDuration                         : 1h 53mn\nOverall bit rate                 : 1 474 Kbps\nMovie name                       : The Last House on the Left [Unrated-Rated][2009]DvDRip[Eng]-Uvall\nWriting application              : Lavf52.33.0\n\nVideo\nFormat                           : MPEG-4 Visual\nFormat profile                   : Simple@L3\nFormat settings, BVOP            : No\nFormat settings, QPel            : No\nFormat settings, GMC             : No warppoints\nFormat settings, Matrix          : Default (H.263)\nCodec ID                         : XVID\nCodec ID/Hint                    : XviD\nDuration                         : 1h 53mn\nBit rate                         : 1 015 Kbps\nWidth                            : 704 pixels\nHeight                           : 380 pixels\nDisplay aspect ratio             : 1.853\nFrame rate                       : 23.976 fps\nResolution                       : 24 bits\nColorimetry                      : 4:2:0\nScan type                        : Progressive\nBits/(Pixel*Frame)               : 0.158\nStream size                      : 825 MiB (69%)\nWriting library                  : XviD 1.2.1 (UTC 2008-12-04)\n\nAudio\nFormat                           : AC-3\nFormat/Info                      : Audio Coding 3\nCodec ID                         : 2000\nDuration                         : 1h 53mn\nBit rate mode                    : Constant\nBit rate                         : 448 Kbps\nChannel(s)                       : 6 channels\nChannel positions                : Front: L C R, Surround: L R, LFE\nSampling rate                    : 48.0 KHz\nStream size                      : 364 MiB (30%)\nAlignment                        : Aligned on interleaves\nInterleave, duration             : 32 ms (0.77 video frame)\n~~~~~~~~~~~~~~~~~~~~~~~~~~~~~~~~~~~~~~~~~~~~~~~~~~~~~~~~~~~~~~~~~~~\n~~~~~~~~~~~~~~~~~~~~~~~~~~~~~~~~~~~~~~~~~~~~~~~~~~~~~~~~~~~~~~~~~~~\nPosted By: Uvall\n~~~~~~~~~~~~~~~~~~~~~~~~~~~~~~~~~~~~~~~~~~~~~~~~~~~~~~~~~~~~~~~~~~~","torrent":{"xt":"urn:btih:d9dd640ad656608f091da849ee5c4fca317e3f65","amp;dn":"The+Last+House+on+the+Left%5BUnrated%5D%5B2009%5DDvDRip%5BEng%5D-Uvall","amp;tr":["udp%3A%2F%2Ftracker.openbittorrent.com%3A80","udp%3A%2F%2Fopen.demonii.com%3A1337","udp%3A%2F%2Ftracker.coppersurfer.tk%3A6969","udp%3A%2F%2Fexodus.desync.com%3A6969"],"infoHash":"d9dd640ad656608f091da849ee5c4fca317e3f65","infoHashBuffer":{"type":"Buffer","data":[217,221,100,10,214,86,96,143,9,29,168,73,238,92,79,202,49,126,63,101]},"announce":[],"urlList":[]}}